<svg xmlns="http://www.w3.org/2000/svg" width="100" height="100"><circle fill="#B2B2B2" cx="50" cy="50" r="50"/><path d="M70.994 30.04s-2.373-2.482-3.163-3.237c-.794-.754-2.796-2.423-2.796-2.423l-7.525 6.592s-1.317.219-1.949.487c-.632.272-1.579 1.138-1.579 1.138l-.211.161s-1.057-4.211-1.373-5.072c-.319-.864-1.533-2.345-2.007-3.374-.476-1.024-.476-1.591-.476-1.591s.948.324 1.318-.002c.367-.322.155-.807.525-1.294.368-.486.576-.972.576-.972s.211-.055.316-.271c.105-.214.158-.702.158-.702s.631-.108.79-.433c.155-.323-.057-1.566-.057-1.566s.475-.486.634-.594c.156-.107.368-.917.366-1.403-.001-.256.043-.677.085-1.019l.202.158s.086-.433.126-1.075c.077-.196.116-.471.017-.826-.012-.546-.075-1.156-.234-1.754l1.509-.091c-.108.316-.311 1.07-.229 2.102l1.267.235s-.336-1.438.048-2.404l2.462-.149c-6.291-2.224-8.319-3.101-8.319-3.101-2.637.308-9.229.688-9.229.688l4.771 1.548c-.61.5-1.244 1.281-1.622 2.504l.207-.037c-.47 1.102-.753 2.297-.752 3.124.001 1.509.317 2.103.318 2.698l-.26 1.08-.58.486s-.579.704-1.053 1.189c-.475.486-3.001.974-3.528 1.137-.527.164-2.634.436-2.945 4.755-.311 4.316.273 7.931.695 9.444.426 1.51.954 3.453 1.639 4.099l.685.648s.219 6.044.115 8.581c-.102 2.536-.57 6.695-.57 6.695l.121.035-.634 20.597 3.488.774v.018c.057 3.131.536 8.419.484 9.285-.051.862-.786 2.537-.681 2.75.104.218 1.265.92 1.687 1.078.422.162 1.001.162 1.792.592.789.43 2.265 1.35 4.32 1.292 2.054-.056 3.846-.653 4.001-.975.16-.327-.422-1.189-.422-1.675 0 0-.421-.216-1-.483-.58-.271-1.477-.864-2.268-1.345-.792-.488-.792-.92-.792-.92s.264.272 1.319.271c1.054-.002 2.21-.652 3.213-.544.999.102 3.003.749 5.058.099 2.052-.647 2.63-1.297 2.524-1.674-.104-.38-.475-.921-.736-.919-.265 0-1.583-.266-2.267-.211-.685.055-1.688-.537-1.688-.537s-.685-.972-.422-1.892c.262-.916.52-6.639.518-7.718s-.066-10.364-.438-13.224c-.372-2.861-.638-5.075-.638-5.075l.208-.432s-1.322-6.907-1.322-7.499c-.001-.545-.317-5.596-.369-6.416.299-.063.685-.116 1.149-.117 1.16-.001 2.056.483 2.056.483l1.09-1.014 2.756-.34-.055-1.51.895-.108.105-.487s.63-.483.945-.593c.316-.108.844-.325.844-.541v-.217s.315-.268.367-.484c.052-.218-.052-.433-.052-.433s.633-.325.633-.541c0-.217.051-.431.051-.431l.266-.442 5.522-4.636zm-21.115 53.567c-.051 1.188-.419 2.699-.419 2.699l-.578-.327s.315-1.348.418-2.48c.103-1.135.1-3.671.1-3.671s.531 2.59.479 3.779z"/></svg>